<svg xmlns="http://www.w3.org/2000/svg" xmlns:xlink="http://www.w3.org/1999/xlink" zoomAndPan="magnify" preserveAspectRatio="xMidYMid meet" version="1.0" viewBox="50.4 116.87 273.91 114.2"><defs><g/></defs><g fill="#004aad" fill-opacity="1"><g transform="translate(45.668622, 231.072636)"><g><path d="M 43.453125 -114.203125 L 128.75 -114.203125 C 129.144531 -114.148438 129.34375 -113.925781 129.34375 -113.53125 L 129.34375 -96.84375 C 129.34375 -96.394531 129.144531 -96.171875 128.75 -96.171875 L 109.390625 -96.171875 L 109.390625 -0.671875 C 109.390625 -0.222656 109.164062 0 108.71875 0 L 5.40625 0 C 4.957031 0 4.734375 -0.222656 4.734375 -0.671875 L 4.734375 -30.640625 C 4.785156 -31.035156 5.007812 -31.234375 5.40625 -31.234375 L 22.15625 -31.234375 C 22.601562 -31.191406 22.828125 -30.992188 22.828125 -30.640625 L 22.828125 -18.015625 L 62.140625 -18.015625 L 62.140625 -96.171875 L 43.453125 -96.171875 C 43.003906 -96.171875 42.78125 -96.394531 42.78125 -96.84375 L 42.78125 -113.53125 C 42.875 -113.976562 43.097656 -114.203125 43.453125 -114.203125 Z M 43.453125 -114.203125 "/></g></g></g><g fill="#004aad" fill-opacity="1"><g transform="translate(179.684143, 231.072636)"><g><path d="M 5.9375 -114.203125 L 143.703125 -114.203125 C 144.097656 -114.148438 144.296875 -113.945312 144.296875 -113.59375 L 144.296875 -96.84375 C 144.296875 -96.4375 144.097656 -96.234375 143.703125 -96.234375 L 52.53125 -96.234375 L 52.53125 -17.953125 L 94.640625 -17.953125 L 94.640625 -57.125 L 75.953125 -57.125 C 75.503906 -57.125 75.28125 -57.328125 75.28125 -57.734375 L 75.28125 -75.078125 C 75.375 -75.484375 75.597656 -75.6875 75.953125 -75.6875 L 143.96875 -75.6875 C 144.40625 -75.644531 144.625 -75.441406 144.625 -75.078125 L 144.625 -0.59375 C 144.625 -0.195312 144.40625 0 143.96875 0 L 5.9375 0 C 5.539062 0 5.34375 -0.195312 5.34375 -0.59375 L 5.34375 -113.59375 C 5.382812 -114 5.582031 -114.203125 5.9375 -114.203125 Z M 5.9375 -114.203125 "/></g></g></g></svg>